<svg width="173" height="153" viewBox="0 0 173 153" fill="none" xmlns="http://www.w3.org/2000/svg">
<path d="M68.9027 99.9V122H8.7127V99.9H27.1727V52.84C26.4794 53.88 25.266 55.05 23.5327 56.35C21.886 57.5633 20.0227 58.7767 17.9427 59.99C15.9494 61.1167 13.826 62.07 11.5727 62.85C9.40603 63.63 7.45603 64.02 5.7227 64.02V41.4C8.0627 41.4 10.4894 40.7933 13.0027 39.58C15.516 38.28 17.8127 36.8933 19.8927 35.42C21.9727 33.9467 23.6627 32.56 24.9627 31.26C26.3494 29.96 27.086 29.2233 27.1727 29.05H52.3927V99.9H68.9027Z" fill="#EEF0F2"/>
<path d="M119.512 2.42208C119.512 1.63669 120.147 1 120.932 1C121.716 1 122.352 1.63669 122.352 2.42208V15.6948C122.352 16.4802 121.716 17.1169 120.932 17.1169C120.147 17.1169 119.512 16.4802 119.512 15.6948V2.42208Z" fill="#F2C12C"/>
<path d="M136.552 2.42208C136.552 1.63669 137.188 1 137.972 1C138.756 1 139.392 1.63669 139.392 2.42208V15.6948C139.392 16.4802 138.756 17.1169 137.972 17.1169C137.188 17.1169 136.552 16.4802 136.552 15.6948V2.42208Z" fill="#F2C12C"/>
<path d="M153.59 2.42208C153.59 1.63669 154.226 1 155.01 1C155.794 1 156.43 1.63669 156.43 2.42208V15.6948C156.43 16.4802 155.794 17.1169 155.01 17.1169C154.226 17.1169 153.59 16.4802 153.59 15.6948V2.42208Z" fill="#F2C12C"/>
<path fill-rule="evenodd" clip-rule="evenodd" d="M102 15.6948C102 11.2442 105.603 7.63635 110.047 7.63635H164.953C169.397 7.63635 173 11.2442 173 15.6948V35.6039C173 36.3893 172.364 37.026 171.58 37.026C170.796 37.026 170.16 36.3893 170.16 35.6039V15.6948C170.16 12.815 167.829 10.4805 164.953 10.4805H110.047C107.171 10.4805 104.84 12.815 104.84 15.6948V65.9415C104.84 68.8213 107.171 71.1558 110.047 71.1558H137.027C137.811 71.1558 138.447 71.7925 138.447 72.5779C138.447 73.3633 137.811 74 137.027 74H110.047C105.603 74 102 70.3921 102 65.9415V15.6948Z" fill="#F2C12C"/>
<path d="M119.987 28.4935C119.987 29.5407 119.139 30.3896 118.093 30.3896C117.048 30.3896 116.2 29.5407 116.2 28.4935C116.2 27.4463 117.048 26.5974 118.093 26.5974C119.139 26.5974 119.987 27.4463 119.987 28.4935Z" fill="#F2C12C"/>
<path d="M132.295 28.4935C132.295 29.5407 131.448 30.3896 130.402 30.3896C129.356 30.3896 128.509 29.5407 128.509 28.4935C128.509 27.4463 129.356 26.5974 130.402 26.5974C131.448 26.5974 132.295 27.4463 132.295 28.4935Z" fill="#F2C12C"/>
<path d="M144.6 28.4935C144.6 29.5407 143.752 30.3896 142.707 30.3896C141.661 30.3896 140.813 29.5407 140.813 28.4935C140.813 27.4463 141.661 26.5974 142.707 26.5974C143.752 26.5974 144.6 27.4463 144.6 28.4935Z" fill="#F2C12C"/>
<path d="M144.6 40.8182C144.6 41.8654 143.752 42.7143 142.707 42.7143C141.661 42.7143 140.813 41.8654 140.813 40.8182C140.813 39.771 141.661 38.9221 142.707 38.9221C143.752 38.9221 144.6 39.771 144.6 40.8182Z" fill="#F2C12C"/>
<path d="M156.908 28.4935C156.908 29.5407 156.061 30.3896 155.015 30.3896C153.97 30.3896 153.122 29.5407 153.122 28.4935C153.122 27.4463 153.97 26.5974 155.015 26.5974C156.061 26.5974 156.908 27.4463 156.908 28.4935Z" fill="#F2C12C"/>
<path d="M119.987 40.8182C119.987 41.8654 119.139 42.7143 118.093 42.7143C117.048 42.7143 116.2 41.8654 116.2 40.8182C116.2 39.771 117.048 38.9221 118.093 38.9221C119.139 38.9221 119.987 39.771 119.987 40.8182Z" fill="#F2C12C"/>
<path d="M132.295 40.8182C132.295 41.8654 131.448 42.7143 130.402 42.7143C129.356 42.7143 128.509 41.8654 128.509 40.8182C128.509 39.771 129.356 38.9221 130.402 38.9221C131.448 38.9221 132.295 39.771 132.295 40.8182Z" fill="#F2C12C"/>
<path d="M132.295 53.1429C132.295 54.1901 131.448 55.039 130.402 55.039C129.356 55.039 128.509 54.1901 128.509 53.1429C128.509 52.0957 129.356 51.2468 130.402 51.2468C131.448 51.2468 132.295 52.0957 132.295 53.1429Z" fill="#F2C12C"/>
<path d="M119.987 53.1428C119.987 54.19 119.139 55.0389 118.093 55.0389C117.048 55.0389 116.2 54.19 116.2 53.1428C116.2 52.0956 117.048 51.2467 118.093 51.2467C119.139 51.2467 119.987 52.0956 119.987 53.1428Z" fill="#F2C12C"/>
<path fill-rule="evenodd" clip-rule="evenodd" d="M156.907 71.1558C164.226 71.1558 170.16 65.2134 170.16 57.8831C170.16 50.5528 164.226 44.6104 156.907 44.6104C149.587 44.6104 143.653 50.5528 143.653 57.8831C143.653 65.2134 149.587 71.1558 156.907 71.1558ZM156.907 74C165.795 74 173 66.7842 173 57.8831C173 48.982 165.795 41.7662 156.907 41.7662C148.019 41.7662 140.813 48.982 140.813 57.8831C140.813 66.7842 148.019 74 156.907 74Z" fill="#F2C12C"/>
<path fill-rule="evenodd" clip-rule="evenodd" d="M155.015 51.7207C155.799 51.7207 156.435 52.3574 156.435 53.1428V56.935C156.435 58.244 157.494 59.3051 158.801 59.3051H161.641C162.426 59.3051 163.061 59.9418 163.061 60.7272C163.061 61.5126 162.426 62.1493 161.641 62.1493H158.801C155.926 62.1493 153.595 59.8148 153.595 56.935V53.1428C153.595 52.3574 154.23 51.7207 155.015 51.7207Z" fill="#F2C12C"/>
</svg>
