<svg width="179" height="153" viewBox="0 0 179 153" fill="none" xmlns="http://www.w3.org/2000/svg">
<path d="M5.17414 122C5.17414 116.02 5.43414 110.82 5.95414 106.4C6.47414 101.893 7.51414 97.9067 9.07414 94.44C10.6341 90.9733 12.8875 87.94 15.8341 85.34C18.8675 82.6533 22.8541 80.14 27.7941 77.8C30.4808 76.5 33.0375 75.2433 35.4641 74.03C37.8908 72.73 40.0141 71.3433 41.8341 69.87C43.7408 68.3967 45.2141 66.75 46.2541 64.93C47.3808 63.11 47.9441 61.03 47.9441 58.69C47.9441 55.57 47.0775 53.4467 45.3441 52.32C43.6975 51.1067 41.7475 50.5 39.4941 50.5C36.1141 50.5 32.6908 51.4533 29.2241 53.36C25.8441 55.2667 22.8975 57.4333 20.3841 59.86L5.17414 43.35C6.90747 41.4433 9.03081 39.6233 11.5441 37.89C14.1441 36.07 17.0475 34.4667 20.2541 33.08C23.5475 31.6933 27.1008 30.61 30.9141 29.83C34.7275 29.05 38.7575 28.66 43.0041 28.66C53.5775 28.66 61.7241 31.2167 67.4441 36.33C73.2508 41.4433 76.1541 48.7667 76.1541 58.3C76.1541 61.8533 75.7208 64.9733 74.8541 67.66C74.0741 70.3467 72.9041 72.7733 71.3441 74.94C69.7841 77.02 67.8341 78.97 65.4941 80.79C63.2408 82.5233 60.6841 84.2133 57.8241 85.86C56.0041 86.9 54.1408 87.9833 52.2341 89.11C50.3275 90.15 48.5941 91.2333 47.0341 92.36C45.5608 93.4867 44.3475 94.7 43.3941 96C42.4408 97.2133 41.9641 98.5133 41.9641 99.9H76.2841V122H5.17414Z" fill="#EEF0F2"/>
<g clip-path="url(#clip0)">
<path d="M153.5 74H114.5C110.363 74 107 70.634 107 66.5V18.5C107 14.366 110.363 11 114.5 11H120.5C121.328 11 122 11.672 122 12.5C122 13.328 121.328 14 120.5 14H114.5C112.019 14 110 16.019 110 18.5V66.5C110 68.981 112.019 71 114.5 71H153.5C155.981 71 158 68.981 158 66.5V18.5C158 16.019 155.981 14 153.5 14H147.5C146.672 14 146 13.328 146 12.5C146 11.672 146.672 11 147.5 11H153.5C157.637 11 161 14.366 161 18.5V66.5C161 70.634 157.637 74 153.5 74Z" fill="#F2C12C"/>
<path d="M144.5 20H123.5C121.019 20 119 17.981 119 15.5V9.5C119 8.672 119.672 8 120.5 8H126.65C127.346 4.58 130.379 2 134 2C137.621 2 140.654 4.58 141.35 8H147.5C148.328 8 149 8.672 149 9.5V15.5C149 17.981 146.981 20 144.5 20ZM122 11V15.5C122 16.328 122.675 17 123.5 17H144.5C145.325 17 146 16.328 146 15.5V11H140C139.172 11 138.5 10.328 138.5 9.5C138.5 7.019 136.481 5 134 5C131.519 5 129.5 7.019 129.5 9.5C129.5 10.328 128.828 11 128 11H122Z" fill="#F2C12C"/>
<path d="M173 65C172.433 65 171.914 64.679 171.659 64.172L167.792 56.438C167.273 55.4 167 54.242 167 53.084V26C167 22.691 169.691 20 173 20C176.309 20 179 22.691 179 26V53.084C179 54.242 178.727 55.4 178.208 56.438L174.341 64.172C174.086 64.679 173.567 65 173 65ZM173 23C171.344 23 170 24.347 170 26V53.084C170 53.777 170.165 54.476 170.474 55.097L173 60.146L175.526 55.097C175.835 54.476 176 53.777 176 53.084V26C176 24.347 174.656 23 173 23ZM176.867 55.766H176.897H176.867Z" fill="#F2C12C"/>
<path d="M150.5 32H117.5C116.672 32 116 31.328 116 30.5C116 29.672 116.672 29 117.5 29H150.5C151.328 29 152 29.672 152 30.5C152 31.328 151.328 32 150.5 32Z" fill="#F2C12C"/>
<path d="M150.5 41H117.5C116.672 41 116 40.328 116 39.5C116 38.672 116.672 38 117.5 38H150.5C151.328 38 152 38.672 152 39.5C152 40.328 151.328 41 150.5 41Z" fill="#F2C12C"/>
<path d="M150.5 50H117.5C116.672 50 116 49.328 116 48.5C116 47.672 116.672 47 117.5 47H150.5C151.328 47 152 47.672 152 48.5C152 49.328 151.328 50 150.5 50Z" fill="#F2C12C"/>
<path d="M150.5 59H117.5C116.672 59 116 58.328 116 57.5C116 56.672 116.672 56 117.5 56H150.5C151.328 56 152 56.672 152 57.5C152 58.328 151.328 59 150.5 59Z" fill="#F2C12C"/>
</g>
<defs>
<clipPath id="clip0">
<rect width="72" height="72" fill="white" transform="translate(107 2)"/>
</clipPath>
</defs>
</svg>
