<svg width="173" height="155" viewBox="0 0 173 155" fill="none" xmlns="http://www.w3.org/2000/svg">
<path d="M34.6041 125.17C27.6707 125.17 21.7341 123.957 16.7941 121.53C11.9407 119.103 7.9974 115.29 4.96406 110.09L17.5741 92.93C17.8341 93.19 18.2674 93.84 18.8741 94.88C19.5674 95.92 20.5207 97.0033 21.7341 98.13C23.0341 99.2567 24.6807 100.297 26.6741 101.25C28.6674 102.117 31.1374 102.55 34.0841 102.55C35.5574 102.55 36.9874 102.42 38.3741 102.16C39.7607 101.9 40.9741 101.467 42.0141 100.86C43.1407 100.253 44.0074 99.4733 44.6141 98.52C45.3074 97.5667 45.6541 96.3967 45.6541 95.01C45.6541 91.63 43.5741 89.3333 39.4141 88.12C35.3407 86.82 29.4474 86.17 21.7341 86.17H17.4441V65.76H21.6041C24.4641 65.76 27.1941 65.63 29.7941 65.37C32.3941 65.0233 34.6907 64.5033 36.6841 63.81C38.7641 63.1167 40.3674 62.25 41.4941 61.21C42.7074 60.0833 43.3141 58.6967 43.3141 57.05C43.3141 55.8367 43.0107 54.9267 42.4041 54.32C41.8841 53.6267 41.2341 53.1067 40.4541 52.76C39.6741 52.4133 38.8941 52.24 38.1141 52.24C37.3341 52.1533 36.7707 52.11 36.4241 52.11C33.9974 52.11 31.8307 52.4133 29.9241 53.02C28.1041 53.6267 26.5007 54.3633 25.1141 55.23C23.7274 56.0967 22.5574 57.0067 21.6041 57.96C20.7374 58.9133 20.0007 59.78 19.3941 60.56L3.79406 42.23C5.5274 40.3233 7.65073 38.6333 10.1641 37.16C12.6774 35.6867 15.3641 34.4733 18.2241 33.52C21.1707 32.5667 24.1607 31.83 27.1941 31.31C30.3141 30.79 33.3474 30.53 36.2941 30.53C41.0607 30.53 45.4807 31.18 49.5541 32.48C53.7141 33.78 57.2674 35.5567 60.2141 37.81C63.2474 40.0633 65.5874 42.75 67.2341 45.87C68.9674 48.9033 69.8341 52.1967 69.8341 55.75C69.8341 60.7767 68.2741 64.9367 65.1541 68.23C62.0341 71.5233 58.0041 73.6467 53.0641 74.6C55.9241 75.0333 58.4807 75.9867 60.7341 77.46C62.9874 78.9333 64.8941 80.7533 66.4541 82.92C68.0141 85 69.2274 87.3833 70.0941 90.07C70.9607 92.7567 71.3941 95.53 71.3941 98.39C71.3941 103.243 70.2674 107.36 68.0141 110.74C65.8474 114.12 62.9874 116.893 59.4341 119.06C55.9674 121.227 52.0241 122.787 47.6041 123.74C43.2707 124.693 38.9374 125.17 34.6041 125.17Z" fill="#EEF0F2"/>
<g clip-path="url(#clip0)">
<path d="M142.921 26.5703C143.731 26.5703 144.389 25.9052 144.389 25.0859C144.389 24.2666 143.731 23.6016 142.921 23.6016C142.109 23.6016 141.453 24.2666 141.453 25.0859C141.453 25.9052 142.109 26.5703 142.921 26.5703Z" fill="#F2C12C"/>
<path d="M128.241 26.5703C129.051 26.5703 129.709 25.9052 129.709 25.0859C129.709 24.2666 129.051 23.6016 128.241 23.6016C127.429 23.6016 126.773 24.2666 126.773 25.0859C126.773 25.9052 127.429 26.5703 128.241 26.5703Z" fill="#F2C12C"/>
<path d="M131.659 36.7731C132.891 37.3605 134.211 37.6585 135.582 37.6585C136.923 37.6585 138.218 37.3727 139.43 36.8091C140.167 36.4664 140.489 35.585 140.151 34.84C139.812 34.0954 138.94 33.769 138.204 34.1117C137.379 34.495 136.496 34.6898 135.582 34.6898C134.647 34.6898 133.748 34.4874 132.91 34.0879C132.177 33.7383 131.302 34.056 130.957 34.7976C130.611 35.5392 130.925 36.4235 131.659 36.7731Z" fill="#F2C12C"/>
<path d="M167.95 60.0831C167.95 51.9208 158.758 45.5194 150.879 45.2161L146.86 41.5637C151.755 37.9514 154.727 32.1461 154.727 25.9766V16.1797C154.727 7.17662 147.461 -0.148438 138.531 -0.148438H132.66C123.741 -0.148438 116.567 7.15053 116.567 16.1797V25.9766C116.567 32.1356 119.499 37.9299 124.331 41.5359L120.281 45.2161C112.419 45.5188 103.21 51.9039 103.21 60.0831V74.3673C103.21 75.1872 103.867 75.8517 104.678 75.8517H166.482C167.293 75.8517 167.95 75.1872 167.95 74.3673V60.0831ZM132.329 66.0548H138.823L140.362 72.883H130.745L132.329 66.0548ZM138.949 63.0861H132.236L131.11 59.5381L135.581 57.2773L140.147 59.5873L138.949 63.0861ZM135.58 52.8172L130.48 44.5656C132.136 45.0312 133.857 45.2729 135.595 45.2729C137.316 45.2729 139.025 45.0358 140.673 44.5777L135.58 52.8172ZM137.681 55.0206L144.728 43.6169L148.528 47.0704L143.692 58.0612L137.681 55.0206ZM132.66 2.82032H138.531C145.843 2.82032 151.792 8.81291 151.792 16.1797V17.4067L149.036 13.393C148.786 13.0295 148.389 12.7975 147.953 12.7604C147.516 12.7233 147.087 12.8851 146.781 13.2017C143.797 16.2876 140.343 17.6641 135.581 17.6641C130.819 17.6641 127.365 16.2876 124.379 13.2017C124.071 12.8834 123.639 12.7222 123.201 12.761C122.763 12.7999 122.365 13.0353 122.117 13.4029L119.502 17.2791V16.1797C119.502 8.81291 125.404 2.82032 132.66 2.82032ZM119.502 25.9766V22.5457L123.578 16.5044C126.844 19.3137 130.703 20.6329 135.581 20.6329C140.464 20.6329 144.326 19.3108 147.592 16.4957L151.792 22.6118V25.9766C151.792 34.8661 144.607 42.3048 135.595 42.3048C126.612 42.3048 119.502 34.8893 119.502 25.9766ZM126.432 43.6175L133.48 55.0206L127.468 58.0612L122.632 47.0704L126.432 43.6175ZM106.146 60.0831C106.146 53.9682 113.496 48.6882 119.919 48.2081L125.41 60.6867C125.573 61.0566 125.878 61.3437 126.256 61.4805C126.633 61.6173 127.049 61.5918 127.408 61.4109L128.453 60.8815L129.644 64.6319L127.73 72.883H106.146V60.0831ZM165.014 72.883H143.372L141.518 64.6545L142.795 60.9262L143.752 61.4109C144.114 61.5936 144.53 61.6162 144.904 61.4805C145.282 61.3437 145.587 61.0566 145.75 60.6867L151.241 48.2081C157.664 48.6888 165.014 53.9682 165.014 60.0831V72.883Z" fill="#F2C12C"/>
<path d="M154.663 66.0548H148.792C147.981 66.0548 147.324 66.7193 147.324 67.5392C147.324 68.3591 147.981 69.0236 148.792 69.0236H154.663C155.473 69.0236 156.13 68.3591 156.13 67.5392C156.13 66.7193 155.473 66.0548 154.663 66.0548Z" fill="#F2C12C"/>
<path d="M160.452 66.0548C161.262 66.0548 161.92 66.7199 161.92 67.5392C161.92 68.3585 161.262 69.0236 160.452 69.0236C159.642 69.0236 158.984 68.3585 158.984 67.5392C158.984 66.7199 159.642 66.0548 160.452 66.0548Z" fill="#F2C12C"/>
</g>
<defs>
<clipPath id="clip0">
<rect width="75" height="76" fill="white" transform="translate(98)"/>
</clipPath>
</defs>
</svg>
