<svg width="177" height="153" viewBox="0 0 177 153" fill="none" xmlns="http://www.w3.org/2000/svg">
<path d="M36.8758 121.87V104.19H3.46582V82.09L44.6758 29.57H61.5758V82.09H73.0158V104.19H61.5758V121.87H36.8758ZM27.7758 82.09H39.7358V66.49L27.7758 82.09Z" fill="#EEF0F2"/>
<g clip-path="url(#clip0)">
<path d="M144.657 65.3917H143.251V63.9843C143.251 60.104 140.097 56.9473 136.22 56.9473H114.844C110.967 56.9473 107.813 60.104 107.813 63.9843V65.3917H106.406C105.63 65.3917 105 66.0218 105 66.799V72.4287C105 73.2059 105.63 73.836 106.406 73.836H144.657C145.434 73.836 146.063 73.2059 146.063 72.4287V66.799C146.064 66.0218 145.434 65.3917 144.657 65.3917ZM110.625 63.9843C110.625 61.6562 112.518 59.7622 114.844 59.7622H136.22C138.546 59.7622 140.438 61.6562 140.438 63.9843V65.3917H110.625V63.9843ZM143.251 71.0213H107.813V68.2065H143.251V71.0213H143.251Z" fill="#F2C12C"/>
<path fill-rule="evenodd" clip-rule="evenodd" d="M175.767 66.6283L145.14 35.9768L150.449 30.6641C150.982 30.8534 151.541 30.9486 152.101 30.9486C153.361 30.9486 154.622 30.4685 155.581 29.5082C157.5 27.5875 157.5 24.4626 155.581 22.5419L142.654 9.60455C140.735 7.6839 137.612 7.6839 135.693 9.60455C134.308 10.9913 133.923 13.0056 134.538 14.7413L129.23 20.054L128.037 18.8598C126.392 17.2136 123.715 17.2136 122.07 18.8598C120.425 20.5061 120.425 23.1846 122.07 24.8309L123.263 26.0251L117.955 31.3377C116.22 30.7221 114.208 31.1071 112.822 32.4938C110.903 34.4145 110.903 37.5394 112.822 39.4601L125.749 52.3974C126.709 53.3578 127.969 53.8379 129.23 53.8379C130.49 53.8379 131.751 53.3578 132.71 52.3974C134.096 51.0107 134.48 48.9964 133.865 47.2607L139.174 41.948L169.801 72.5995C170.624 73.4226 171.704 73.8342 172.784 73.8342C173.865 73.8342 174.945 73.4226 175.768 72.5995C177.412 70.9531 177.412 68.2746 175.767 66.6283ZM148.919 47.7198L150.907 45.7296L154.885 49.7104L173.779 68.6187C174.327 69.1674 174.327 70.0602 173.779 70.609C173.23 71.1578 172.338 71.1578 171.79 70.609L152.896 51.7006L148.919 47.7198ZM137.682 11.595C138.093 11.1834 138.633 10.9776 139.174 10.9776C139.714 10.9776 140.254 11.1835 140.665 11.595L153.592 24.5323C154.415 25.3554 154.415 26.6947 153.592 27.5178C152.77 28.3409 151.432 28.3409 150.609 27.5178L137.682 14.5804C136.86 13.7575 136.86 12.418 137.682 11.595ZM124.059 22.8405C123.51 22.2917 123.51 21.3989 124.059 20.8502C124.333 20.5758 124.693 20.4386 125.053 20.4386C125.413 20.4386 125.774 20.5757 126.048 20.8502L127.241 22.0444L125.252 24.0346L124.059 22.8405ZM130.721 50.4069C129.899 51.23 128.56 51.23 127.738 50.4069L114.811 37.4695C113.989 36.6465 113.989 35.3072 114.811 34.4841C115.222 34.0725 115.762 33.8667 116.303 33.8667C116.843 33.8667 117.383 34.0726 117.794 34.4841L130.721 47.4214C131.544 48.2445 131.544 49.5838 130.721 50.4069ZM143.151 37.9672L148.919 43.7392L146.93 45.7294L141.163 39.9575L143.151 37.9672ZM136.19 40.9528L140.168 36.972L148.123 29.0107L136.19 17.0685L120.28 32.9912L132.213 44.9334L136.19 40.9528Z" fill="#F2C12C"/>
</g>
<defs>
<clipPath id="clip0">
<rect width="72" height="69" fill="white" transform="translate(105 5)"/>
</clipPath>
</defs>
</svg>
