<svg width="170" height="153" viewBox="0 0 170 153" fill="none" xmlns="http://www.w3.org/2000/svg">
<path d="M40.468 61.42C44.9746 61.42 49.0913 62.1567 52.818 63.63C56.5446 65.1033 59.7513 67.1833 62.438 69.87C65.2113 72.47 67.3346 75.6333 68.808 79.36C70.368 83 71.148 87.03 71.148 91.45C71.148 96.13 70.2813 100.42 68.548 104.32C66.8146 108.22 64.3446 111.557 61.138 114.33C58.018 117.103 54.248 119.27 49.828 120.83C45.4946 122.39 40.6846 123.17 35.398 123.17C28.638 123.17 22.528 121.913 17.068 119.4C11.6946 116.887 7.53464 113.29 4.58797 108.61L18.108 93.01C20.6213 95.6967 23.3946 97.82 26.428 99.38C29.548 100.853 32.5813 101.59 35.528 101.59C38.7346 101.59 41.248 100.723 43.068 98.99C44.888 97.2567 45.798 94.9167 45.798 91.97C45.798 89.11 44.9746 86.8133 43.328 85.08C41.6813 83.3467 39.5146 82.48 36.828 82.48C35.008 82.48 33.318 82.9133 31.758 83.78C30.2846 84.56 29.158 85.6433 28.378 87.03H7.18797L18.108 29.57H64.388V52.06H35.918L34.488 62.07C34.8346 61.9833 35.3113 61.8967 35.918 61.81C36.3513 61.7233 36.958 61.6367 37.738 61.55C38.518 61.4633 39.428 61.42 40.468 61.42Z" fill="#EEF0F2"/>
<path fill-rule="evenodd" clip-rule="evenodd" d="M166.083 38C166.083 55.7191 151.719 70.0833 134 70.0833C116.281 70.0833 101.917 55.7191 101.917 38C101.917 20.2809 116.281 5.91667 134 5.91667C151.719 5.91667 166.083 20.2809 166.083 38ZM169 38C169 57.33 153.33 73 134 73C114.67 73 99 57.33 99 38C99 18.67 114.67 3 134 3C153.33 3 169 18.67 169 38ZM152.554 30.2581C153.111 29.6762 153.09 28.753 152.508 28.1962C151.926 27.6395 151.003 27.6599 150.446 28.2419L132.306 47.2031C132.116 47.4019 131.798 47.4033 131.606 47.2062L119.489 34.7658C118.927 34.1888 118.004 34.1767 117.427 34.7387C116.85 35.3006 116.838 36.2239 117.4 36.8009L129.517 49.2413C130.861 50.6212 133.082 50.6113 134.413 49.2193L152.554 30.2581Z" fill="#F2C12C"/>
</svg>
