<svg width="29" height="28" viewBox="0 0 29 28" fill="none" xmlns="http://www.w3.org/2000/svg">
<path d="M14.8009 0C9.14243 0 4.53906 4.60336 4.53906 10.2618C4.53906 12.8612 6.17691 16.5338 9.40732 21.1777C11.7685 24.5724 14.0908 27.1993 14.1886 27.3096L14.8009 28L15.4133 27.3096C15.511 27.1993 17.8333 24.5724 20.1946 21.1777C23.4248 16.5338 25.0629 12.8612 25.0629 10.2618C25.0629 4.60336 20.4593 0 14.8009 0ZM18.8597 20.2297C17.2637 22.5257 15.6507 24.5017 14.8009 25.5098C13.9532 24.5045 12.3461 22.5359 10.7512 20.2429C7.75815 15.9401 6.17606 12.4886 6.17606 10.2618C6.17606 5.50613 10.0452 1.63699 14.8009 1.63699C19.5568 1.63699 23.4257 5.50613 23.4257 10.2618C23.4257 12.4863 21.8468 15.9331 18.8597 20.2297Z" fill="white"/>
<path d="M14.8025 3.79272C11.463 3.79272 8.74609 6.50958 8.74609 9.84915C8.74609 13.1887 11.463 15.9058 14.8025 15.9058C18.1423 15.9058 20.8592 13.1887 20.8592 9.84915C20.8592 6.50958 18.1423 3.79272 14.8025 3.79272ZM14.8025 14.2688C12.3657 14.2688 10.3831 12.2862 10.3831 9.84915C10.3831 7.41235 12.3657 5.42972 14.8025 5.42972C17.2395 5.42972 19.2222 7.41235 19.2222 9.84915C19.2222 12.2862 17.2395 14.2688 14.8025 14.2688Z" fill="white"/>
</svg>
