<svg width="25" height="30" viewBox="0 0 25 30" fill="none" xmlns="http://www.w3.org/2000/svg">
<path d="M12.5004 0C11.8104 0 11.2504 0.56 11.2504 1.25V26.1869L2.15551 16.6381C1.67989 16.1387 0.889274 16.1181 0.388028 16.595C-0.111968 17.0712 -0.131343 17.8619 0.344903 18.3619L10.7323 29.2675C11.2048 29.74 11.8323 30 12.5004 30C13.1679 30 13.796 29.74 14.2892 29.2456L24.6553 18.3619C25.1316 17.8619 25.1116 17.0712 24.6122 16.595C24.1128 16.1181 23.3216 16.1381 22.8453 16.6381L13.7504 26.2269V1.25C13.7504 0.56 13.1904 0 12.5004 0Z" fill="#F2C12C"/>
</svg>
