<svg width="16" height="16" viewBox="0 0 16 16" fill="none" xmlns="http://www.w3.org/2000/svg">
<rect width="16" height="16" rx="2.5" fill="#F2C12C"/>
<rect x="0.5" y="0.5" width="15" height="15" rx="2" stroke="#F2C12C"/>
<path d="M10.9717 4.35203L7.42712 8.79648L5.89862 6.92092C5.74567 6.73468 5.52094 6.61366 5.27385 6.58449C5.02677 6.55532 4.77759 6.62038 4.58111 6.76536C4.38464 6.91035 4.25697 7.12338 4.2262 7.35759C4.19542 7.59181 4.26406 7.82801 4.41701 8.01425L6.69569 10.7787C6.784 10.8846 6.89661 10.9701 7.02497 11.0286C7.15333 11.0872 7.29406 11.1172 7.4365 11.1165C7.57971 11.1162 7.72093 11.0847 7.84935 11.0246C7.97776 10.9646 8.08995 10.8774 8.1773 10.7698L12.4627 5.43648C12.6144 5.24788 12.6809 5.00988 12.6475 4.77483C12.6141 4.53979 12.4835 4.32695 12.2846 4.18314C12.0856 4.03934 11.8345 3.97634 11.5866 4.00801C11.3386 4.03969 11.1141 4.16343 10.9624 4.35203H10.9717Z" fill="white"/>
</svg>
