<svg width="31" height="32" viewBox="0 0 31 32" fill="none" xmlns="http://www.w3.org/2000/svg">
<path d="M26.9337 3.12204C26.1398 2.39218 22.9258 0.0553219 15.7616 0.0233102C15.7616 0.0233102 7.3169 -0.488877 3.2002 3.2885C0.908159 5.58054 0.101464 8.92897 0.0182332 13.0905C-0.0649972 17.2456 -0.173838 25.0373 7.33611 27.15H7.34251L7.33611 30.3704C7.33611 30.3704 7.29129 31.6765 8.14921 31.939C9.18639 32.2591 9.80101 31.2667 10.7934 30.1975C11.3376 29.6085 12.0866 28.7506 12.6565 28.0912C17.7911 28.5201 21.7414 27.5342 22.1895 27.3869C23.2267 27.0476 29.0977 26.2985 30.0516 18.5069C31.0376 10.4911 29.5714 5.41408 26.9337 3.12204ZM27.8044 17.9435C26.9977 24.4482 22.2408 24.858 21.3636 25.1397C20.9923 25.2613 17.5222 26.1257 13.1558 25.8375C13.1558 25.8375 9.90345 29.7622 8.89188 30.7802C8.73182 30.9402 8.54615 31.0042 8.42451 30.9722C8.25164 30.9274 8.20043 30.7225 8.20683 30.4216C8.20683 29.9863 8.23244 25.0629 8.23244 25.0629C8.22604 25.0629 8.22604 25.0629 8.23244 25.0629C1.87491 23.3022 2.24625 16.6694 2.31667 13.1993C2.3871 9.72926 3.04014 6.88022 4.98005 4.96592C8.45652 1.81597 15.6335 2.28334 15.6335 2.28334C21.6902 2.30895 24.5904 4.13361 25.2627 4.74184C27.4971 6.66254 28.6367 11.2402 27.8044 17.9435Z" fill="white"/>
<path d="M18.7147 13.321C18.5034 13.321 18.3242 13.1545 18.3114 12.9368C18.241 11.5603 17.5943 10.8881 16.2754 10.8177C16.0514 10.8049 15.8785 10.6128 15.8913 10.3887C15.9041 10.1646 16.0962 9.99177 16.3203 10.0046C18.0617 10.1006 19.0348 11.0994 19.1245 12.892C19.1373 13.1161 18.9644 13.3082 18.7403 13.3146C18.7275 13.321 18.7211 13.321 18.7147 13.321Z" fill="white"/>
<path d="M20.7835 14.0125H20.7771C20.553 14.0061 20.3737 13.8205 20.3801 13.5964C20.4121 12.2135 20.0152 11.0931 19.1701 10.1711C18.3314 9.24919 17.1725 8.74981 15.6424 8.64097C15.4183 8.62176 15.2518 8.42969 15.271 8.20561C15.2902 7.98153 15.4823 7.81507 15.7064 7.83427C17.435 7.96232 18.7987 8.56414 19.7719 9.62693C20.7514 10.6961 21.2252 12.0342 21.1932 13.6156C21.1868 13.8397 21.0011 14.0125 20.7835 14.0125Z" fill="white"/>
<path d="M22.9137 14.8448C22.6896 14.8448 22.5103 14.6655 22.5103 14.4414C22.4911 11.9637 21.7804 10.075 20.3335 8.66011C18.9058 7.2644 17.0939 6.55374 14.9619 6.53453C14.7379 6.53453 14.5586 6.34887 14.5586 6.12478C14.5586 5.9007 14.7443 5.72144 14.9619 5.72144C17.3116 5.74064 19.3091 6.52813 20.8905 8.0775C22.4783 9.62686 23.2914 11.7652 23.317 14.4286C23.3234 14.6591 23.1441 14.8448 22.9137 14.8448C22.9201 14.8448 22.9201 14.8448 22.9137 14.8448Z" fill="white"/>
<path d="M16.3703 18.3339C16.3703 18.3339 16.9401 18.3852 17.2475 18.0074L17.8429 17.2584C18.131 16.887 18.8288 16.6501 19.5075 17.0279C19.8852 17.2391 20.5703 17.6617 20.9928 17.9754C21.4474 18.3083 22.3693 19.0766 22.3757 19.083C22.8175 19.4544 22.9199 19.9986 22.619 20.5812C22.619 20.5812 22.619 20.5876 22.619 20.594C22.3117 21.1382 21.8956 21.6504 21.377 22.1241C21.3706 22.1241 21.3706 22.1305 21.3642 22.1305C20.9352 22.4891 20.5127 22.6939 20.1029 22.7388C20.0517 22.7516 19.9941 22.7516 19.9172 22.7516C19.738 22.7516 19.5587 22.726 19.3794 22.6683L19.3666 22.6491C18.7264 22.4699 17.6636 22.0217 15.8966 21.0421C14.7441 20.4083 13.7902 19.7617 12.9771 19.115C12.5481 18.7757 12.1128 18.398 11.6646 17.9498C11.6518 17.937 11.6326 17.9178 11.6198 17.905C11.607 17.8922 11.5878 17.873 11.575 17.8602C11.5622 17.8474 11.543 17.8282 11.5302 17.8154C11.5174 17.8026 11.4982 17.7833 11.4854 17.7705C11.0436 17.3224 10.6594 16.887 10.3201 16.4581C9.67349 15.6514 9.02685 14.691 8.39302 13.5386C7.41346 11.7651 6.9653 10.7024 6.78603 10.0685L6.76682 10.0557C6.7092 9.87645 6.68359 9.69719 6.68359 9.51792C6.68359 9.44109 6.68359 9.38347 6.6964 9.33225C6.74762 8.9161 6.95249 8.49995 7.30462 8.07099C7.30462 8.06459 7.31102 8.06459 7.31102 8.05819C7.7848 7.5332 8.29698 7.12345 8.84118 6.81613C8.84118 6.81613 8.84759 6.81613 8.85399 6.81613C9.4302 6.51522 9.9744 6.61766 10.3521 7.05942C10.3521 7.05942 11.1268 7.98776 11.4597 8.44233C11.7735 8.87128 12.196 9.54993 12.4073 9.92767C12.785 10.6063 12.5481 11.3042 12.1768 11.5923L11.4277 12.1877C11.05 12.495 11.1012 13.0648 11.1012 13.0648C11.1012 13.0648 12.2088 17.2776 16.3703 18.3339Z" fill="white"/>
</svg>
