<svg width="32" height="32" viewBox="0 0 32 32" fill="none" xmlns="http://www.w3.org/2000/svg">
<g clip-path="url(#clip0)">
<path fill-rule="evenodd" clip-rule="evenodd" d="M17.7923 2C17.7923 0.895431 16.892 0 15.7814 0C14.6708 0 13.7705 0.89543 13.7705 2V13.9999H1.70618C0.595609 13.9999 -0.304688 14.8953 -0.304688 15.9999C-0.304688 17.1045 0.595609 17.9999 1.70618 17.9999H13.7705V30C13.7705 31.1046 14.6708 32 15.7814 32C16.892 32 17.7923 31.1046 17.7923 30V17.9999H29.8584C30.9689 17.9999 31.8692 17.1045 31.8692 15.9999C31.8692 14.8953 30.9689 13.9999 29.8584 13.9999H17.7923V2Z" fill="#F2C12C"/>
</g>
<defs>
<clipPath id="clip0">
<rect width="32" height="32" fill="white"/>
</clipPath>
</defs>
</svg>
