<svg width="28" height="29" viewBox="0 0 28 29" fill="none" xmlns="http://www.w3.org/2000/svg">
<path d="M23.7622 4.14899C21.1892 1.50034 17.6324 0.0625 14 0.0625C6.28108 0.0625 0.0756757 6.34358 0.151351 13.9868C0.151351 16.4084 0.832432 18.7544 1.96757 20.8733L0 28.0625L7.34054 26.1706C9.38378 27.3057 11.6541 27.8355 13.9243 27.8355C21.5676 27.8355 27.773 21.5544 27.773 13.9111C27.773 10.203 26.3351 6.72196 23.7622 4.14899ZM14 25.4895C11.9568 25.4895 9.91351 24.9598 8.17297 23.9003L7.71892 23.6733L3.32973 24.8084L4.46487 20.4949L4.16216 20.0409C0.832432 14.6679 2.42162 7.55439 7.87027 4.22466C13.3189 0.894932 20.3568 2.48412 23.6865 7.93277C27.0162 13.3814 25.427 20.4193 19.9784 23.749C18.2378 24.8841 16.1189 25.4895 14 25.4895ZM20.6595 17.0895L19.827 16.7111C19.827 16.7111 18.6162 16.1814 17.8595 15.803C17.7838 15.803 17.7081 15.7274 17.6324 15.7274C17.4054 15.7274 17.2541 15.803 17.1027 15.8787C17.1027 15.8787 17.027 15.9544 15.9676 17.1652C15.8919 17.3166 15.7405 17.3922 15.5892 17.3922H15.5135C15.4378 17.3922 15.2865 17.3166 15.2108 17.2409L14.8324 17.0895C14 16.7111 13.2432 16.2571 12.6378 15.6517C12.4865 15.5003 12.2595 15.349 12.1081 15.1976C11.5784 14.6679 11.0486 14.0625 10.6703 13.3814L10.5946 13.2301C10.5189 13.1544 10.5189 13.0787 10.4432 12.9274C10.4432 12.776 10.4432 12.6247 10.5189 12.549C10.5189 12.549 10.8216 12.1706 11.0486 11.9436C11.2 11.7922 11.2757 11.5652 11.427 11.4139C11.5784 11.1868 11.6541 10.8841 11.5784 10.6571C11.5027 10.2787 10.5946 8.23547 10.3676 7.78142C10.2162 7.55439 10.0649 7.47872 9.83784 7.40304H9.61081C9.45946 7.40304 9.23243 7.40304 9.00541 7.40304C8.85405 7.40304 8.7027 7.47872 8.55135 7.47872L8.47568 7.55439C8.32432 7.63007 8.17297 7.78142 8.02162 7.8571C7.87027 8.00845 7.7946 8.1598 7.64324 8.31115C7.11351 8.99223 6.81081 9.82466 6.81081 10.6571C6.81081 11.2625 6.96216 11.8679 7.18919 12.3976L7.26487 12.6247C7.94595 14.0625 8.85405 15.349 10.0649 16.4841L10.3676 16.7868C10.5946 17.0139 10.8216 17.1652 10.973 17.3922C12.5622 18.7544 14.3784 19.7382 16.4216 20.2679C16.6486 20.3436 16.9514 20.3436 17.1784 20.4193C17.4054 20.4193 17.7081 20.4193 17.9351 20.4193C18.3135 20.4193 18.7676 20.2679 19.0703 20.1166C19.2973 19.9652 19.4486 19.9652 19.6 19.8139L19.7514 19.6625C19.9027 19.5111 20.0541 19.4355 20.2054 19.2841C20.3568 19.1328 20.5081 18.9814 20.5838 18.8301C20.7351 18.5274 20.8108 18.149 20.8865 17.7706C20.8865 17.6193 20.8865 17.3922 20.8865 17.2409C20.8865 17.2409 20.8108 17.1652 20.6595 17.0895Z" fill="white"/>
</svg>
